<svg xmlns="http://www.w3.org/2000/svg" xmlns:xlink="http://www.w3.org/1999/xlink" xmlns:inkscape="http://www.inkscape.org/namespaces/inkscape" version="1.1" width="1920" height="1080" viewBox="0 0 1920 1080">
<defs>
<clipPath id="clip_0">
<path transform="matrix(1,0,0,-1,0,1080)" d="M0 1080H1920V0H0Z"/>
</clipPath>
</defs>
<g inkscape:groupmode="layer" inkscape:label="Livello 1">
<g clip-path="url(#clip_0)">
<path transform="matrix(1,0,0,-1,649.58,677.95)" d="M0 0C-1.42 4.72-5.31 16.17-.26 27.28 5.54 40.03 14.96 39.23 24.5 54.25 31.47 65.22 36.7 82.39 29.38 93.7 27.64 96.38 23.84 100.83 21.34 99.96 15.49 97.93 29.89 71.21 20.28 55.05 5.76 30.65-50.54 52.07-80.72 23.36-83.91 20.32-91.56 13.04-94.75 1.41-98.94-13.88-91.61-24.28-94.75-26.29-100.31-29.85-136.17-5.66-140.5 31.98-143.25 55.86-132.96 82.16-113.81 95.67-86.21 115.14-48.95 101.88-46.91 110.78-45.76 115.84-57.03 123.47-66.91 126.56-94.22 135.1-120.43 111.92-123.61 109.11-156.85 79.75-148.94 31.9-148.4 28.91-139.92-17.76-88.08-56.61-19.63-62.19-36.42-60.84-48.99-56.14-56.8-52.48-67.64-47.4-75.42-43.75-80.76-34.88-87.97-22.88-85.98-9.21-85.25-4.17-84.65-.06-83.82 5.69-80.68 11.14-68.81 31.79-29.18 38.04-15.73 23.81-9.26 16.96-12.16 8.86-10.58-.75-2.55-49.54 106.31-46.29 123.6-94.82 137.06-132.61 86.94-179.27 96.3-186.42 101.34-190.27 119.23-177.99 129.86-163.09 143.41-144.11 149.87-114.3 139.76-91.05 116.12-36.64 13.69-45.48-.01 0ZM-22.07-119.88C-116.13-114.42-139.75 31.6-250.89 46.59-274.38 49.76-298.17 46.59-300.31 54.78-304.66 71.45-212.57 108.54-207.21 110.55-140.77 135.45-46.33 171.1 76.49 148.72 112.83 142.1 171.74 126.74 236.47 86.8 237.35 86.26 168.44 136.24 73.54 155.71-42.88 179.58-143.16 148.27-209.07 126.86-365.14 76.16-464.29-9.8-502.43 24.12-508.01 29.08-521.33 44.65-520.41 64.13-519.59 81.56-507.48 96.82-493.92 104.4-472.19 116.55-450.33 108.11-447.42 106.93-450.34 108.35-472.26 118.55-495.59 107.58-513.06 99.36-525.59 81.96-526.7 63.58-528.21 38.57-508.27 20.48-504.95 17.47-460.34-22.94-387.89 50.32-293.01 40.01-160.82 25.64-117.41-136.57-5.27-123.19 24.3-119.66 46.86-105.33 60.26-95.02 61.48-94.08 21.51-122.41-22.07-119.88ZM708.8 115.96C708.8 115.96 708.86 115.94 708.88 115.94H708.81V115.96ZM1147.27 62.31C1145.17 80.69 1133.31 98.25 1116.16 106.31 1092.83 117.28 1070.91 107.08 1067.99 105.66 1070.9 106.84 1092.75 115.28 1114.49 103.13 1128.05 95.55 1140.16 80.29 1140.98 62.86 1141.67 48.35 1134.88 31.15 1123 22.84 1080.31-7.01 999.28 99.42 917.48 72.72 892.44 64.55 871.37 45.26 864.46 38.93 835.93 12.81 831-9.05 800.39-34.56 784.01-48.21 768.34-56.2 758.64-60.54 807.21-29.08 830.51 25.66 817.35 72.41 801.23 129.66 737.98 148.02 727.34 151.12 673.27 166.83 627.91 145.03 616.96 139.38 616.96 139.38 670.58 165.44 724.41 145.43 730.42 143.2 783.31 122.54 798.19 68 812.29 16.32 784.08-35.52 746.61-60.93 717.29-80.81 686.39-81.18 686.39-81.18 686.39-81.18 756.72-84.61 805.86-39.79 819.78-27.09 823.02-18.76 871.1 33.01 877.2 39.57 893.34 56.5 918.41 61.61 924.93 62.94 936.95 65.15 940.62 60.47 942.91 57.55 939.28 47.24 888.39-5.16 852.93-41.67 830.75-61.33 814.3-75.16 805.26-82.77 800.73-86.57 796.35-89.86 777.64-103.89 737.66-133.83 683.83-136.88 645.95-139.03 614.66-127.09 594.63-116.63 624.37-132.68 650.92-137.78 667.4-139.62 683.58-141.42 744.48-146.21 797.78-108.01 801.45-105.38 808.78-98.75 823.44-85.5 862.19-50.47 874.81-34.56 905.41-6.09 935.11 21.54 949.92 35.46 956.89 38.13 1024.09 63.8 1088.79-15.4 1128.39 12.55 1143.58 23.27 1149.18 45.59 1147.27 62.3ZM457.84-.8C469.83 14.1 482.86 29.5 497.54 44.99 497.54 44.99 512.84 61.13 515 59.09 516.67 57.51 486.62 32.49 485.85-1.22 485.69-7.99 485.5-16.51 490.56-19.75 503.53-28.04 532.47 10.09 552.38 1.25 558.77-1.58 564.91-9.57 564.64-17.47 564-36.3 530.74-41.82 504.01-57.85 490-39.9 477.95-15.86 457.84-.8ZM55.01 16.4C51.06 46.78 83.32 78.75 117.1 84.77 144.28 89.61 184.59 79.82 190.15 53.46 194.86 31.13 173.59 2.72 154.71 2.38 129.84 1.93 122.81 50.45 93.37 51.43 77.73 51.95 58.34 38.98 55.84 21.12 55.19 16.47 55.8 12.12 57.02 8.2 56.11 10.77 55.39 13.49 55.01 16.4M649.49-27.97C649.72-26.42 652.01-9.09 641.8 4.51 629.41 21.01 609.9 16.98 604.7 31.15 601.22 40.63 606.07 53.03 613.82 59.06 621.35 64.92 630.84 64.14 634.67 63.77 679.3 59.51 715.65-16.73 743.67-9.13 755.12-6.02 760.15 9.73 761.36 17.2 766.36 48.04 729 77.23 705.59 89.13 655.35 114.66 604.01 93.71 588.53 86 580.52 82.01 563.22 73.12 552.25 54.1 547.88 46.52 543.58 35.71 545.67 34.34 548.99 32.17 562.24 57.26 585.18 73.56 617.67 96.66 666.44 99.86 703.4 81.94 729 69.53 759.58 41.82 753.98 20.87 752.58 15.62 748.12 7.57 740.21 5.3 713.48-2.36 691.73 68.79 640.94 72.89 636.42 73.26 617.04 74.82 605.38 61.78 597.51 52.98 593.59 38.06 598.95 27.16 605.98 12.85 622.64 16.98 633.37 .82 641.55-11.51 639.68-25.7 639.35-27.92 635.28-55.75 601.76-69.36 590.27-74.02 585.03-76.15 579.86-77.74 574.84-78.92 573.59-79.18 572.37-79.45 571.07-79.68 571.07-79.68 554.72-82.55 540.35-81.43 528-80.47 518.55-74.12 510.19-65.14 536.87-52.54 574.01-46.38 579.08-20.07 581.2-9.04 577.63 5.24 568.97 10.51 548.33 23.06 504.66-19.26 493.14-8.07 492.51-7.46 490.95-5.65 490.82-.61 490.26 20.96 520.1 75.82 583.35 103.23 644.65 129.8 704.07 117.05 708.67 116 682.42 122.48 638.59 129.12 590.19 114.45 588.65 113.99 587.6 113.64 586.82 113.39 532.88 95.87 496.91 61.5 482.03 46.65 467.94 32.6 455.94 19.3 445.39 6.75 444.71 7.07 444.03 7.38 443.34 7.68 384.95 32.82 298.25-27.07 290.63-13.44 290.11-12.51 290.05-11.62 289.91-9.84 289.29-1.69 293.94 6.7 301.65 14.48 306.55 18.41 311.45 22.35 316.35 26.29 328.47 34.28 343.18 40.79 357.04 44.4 376.61 49.51 403.82 51.29 414.82 52.02 419.45 52.32 426.48 52.7 436.2 54.24 446.42 55.85 458.07 57.7 470.92 63.24 476.27 65.55 504.83 77.88 503.64 91.74 503.62 91.99 503.11 97.27 499.99 98.41 493.4 100.83 485.9 80.88 465.93 68.54 463.269 66.9 450.379 58.94 435.99 58.94 419.78 58.94 399.44 79.17 387.24 88.77 345.31 121.78 309.19 83.39 257.19 112.27 220.07 132.89 206.33 169.44 198.78 165.16 193.74 162.3 196.17 143.88 205.01 131.94 212.98 121.17 225.48 116.58 246.21 108.98 251.86 106.9 256.22 105.6 257.74 105.13 301.46 91.88 324.33 98.37 363.58 87.64 365.95 86.99 377.2 83.82 389.04 75.26 395.7 70.44 404.55 63.95 403.64 58.67 402.45 51.77 381.92 54.01 357.61 47.59 356.34 47.25 355.07 46.89 353.79 46.52H353.81C350.22 45.48 347.34 44.53 345.37 43.85 341.5 42.52 338.56 41.35 337.43 42.58 337.22 42.81 337.13 43.07 337.07 43.31 336.52 45.4 337.41 47.99 338.14 49.64 338.4 50.18 338.68 50.67 338.93 51.24 340.09 53.31 341.31 56.35 342.06 60.57 342.21 61.34 342.34 62.1 342.44 62.85 342.44 62.88 342.44 62.91 342.45 62.94 343.02 67.6 342.42 71.84 340.45 75.3 332.88 88.62 306.82 85.96 300.01 85.3 242.03 79.61 228.46-11.64 158.34-30.03 154.15-31.13 109.7-42.58 77.51-17.78 75.82-16.48 72.66-14.04 69.23-10.56 68.99-10.29 54.06 6.52 58.95 20.52 63.49 33.54 80.04 39.26 92.109 38.44 120.68 36.5 124.49-1.91 150.94-6.12 175.59-10.04 209.229 17.47 209.47 44.07 209.76 75.48 163.46 100.41 126.12 98.21 83.06 95.67 40.84 56.39 44.12 17.62 46.32-8.45 68.31-24.98 72.26-27.95 106.69-53.84 154.31-38.73 161.87-36.18 161.95-36.15 162.45-35.98 163.05-35.78 225.24-14 269.42 68.64 303.45 75.9 306.23 76.49 315.74 78.52 324.31 73.74 325.909 72.85 331.9 69.51 333.279 63.5 334.649 57.53 330.779 51.93 325.629 45.54 314.849 32.16 307.419 26.37 297.189 16.01 277.129-4.31 276.779-11.39 277.649-15.29 277.649-15.29 278.619-19.63 282.74-23.37 302.909-41.67 376.82 19.96 427.859-.92 430.609-2.05 433.269-3.39 435.839-4.93 391.809-59.67 373.499-98.61 321.759-119.93 288.889-133.47 271.429-127.99 265.039-125.4 234.739-113.11 225.019-73.23 217.219-76.03 212.879-77.59 212.439-91.07 216.449-101.49 224.119-121.44 247.219-127.95 258.209-131.05 291.519-140.46 321.009-130.64 326.499-128.73 375.679-111.63 406.029-66.72 447.699-13.65 464.529-28.36 478.119-49.78 493.809-64.89 486.309-70.84 479.929-78.09 475.819-87.35 461.669-119.26 478.449-167.46 506.379-180.5 511.669-182.97 522.709-186.69 526.359-182.44 536.069-171.14 473.839-126.29 483.789-90.58 486.179-82 492.249-75.7 500.239-70.6 505.319-74.69 510.669-78.01 516.449-80.15 529.939-85.16 543.609-86.09 543.609-86.09 556.509-86.09 566.269-85.01 570.669-84.1 578.539-82.46 643.729-67.84 649.569-27.98H649.489ZM173.29 215.93C194.84 224.05 235.56 240.74 253.52 281.39 255.97 286.95 272.69 324.8 254.32 353.58 245.82 366.88 232.45 374.13 223.7 377.56 249.61 369.1 274.09 352.13 277.25 332.06 278.66 323.11 277.28 304.35 276.16 294.22 274.75 281.41 272.6 271.83 278.34 264.75 282.38 259.77 288.36 258.41 291.07 257.84 316.19 252.5 341.19 280.96 376.92 292.13 402.78 300.21 443.54 302.14 456.52 282.88 462.47 274.05 462.98 260.27 459.26 246.38 440.05 237.35 421.84 233.12 402.93 234.52 370.88 236.91 341.76 255.15 339.25 250 337.54 246.49 349.52 236.35 360.67 230.36 387.69 215.86 416.97 221.94 424.99 223.61 434.89 225.67 444.81 229.22 454.74 233.88 448.65 220.53 438.81 208.5 426.36 202.47 390.45 185.06 354.7 227.97 276.55 217.8 269.88 216.93 262.75 216.01 253.21 213.45 205.28 200.61 191.17 172.06 153.14 171.12 148.51 171.01 141.65 171.26 133.76 173.1 114.2 177.67 102.5 188.74 93.25 201.61 140.43 204.1 165.31 212.96 173.29 215.97V215.93ZM725.15 312.72C750.79 320.33 777.35 316.96 802.24 308.64 795.68 279.66 778 255.21 764.12 246.91 757.69 243.06 740.47 235.75 729.22 232.74 720.85 230.51 712.98 229.49 712.98 229.49 710.36 229.15 708.99 229.14 705.87 228.77 699.38 227.99 692.91 226.98 686.4 226.4 676.71 225.53 663.56 222.26 650.09 217.72 650.2 230.16 651.93 244 657.76 257.19 675.47 297.28 722.36 311.9 725.15 312.72M583.12 282.9C577.15 285.7 574.58 290.07 574.58 290.07 574.58 290.07 571.18 296.28 573.99 304.79 578.53 318.53 610.75 324.84 641.51 324.78 676.3 324.71 697.37 316.51 712.64 317.12 664.53 305.26 598.83 275.53 583.12 282.9M-358.53 186.92C-314.25 159.73-251.27 157.35-209.7 185.26-156.21 221.18-135.24 309.21-98.7 320.78-93.6 322.39-79.72 326.79-71.6 319.89-66.31 315.39-65.77 308.04-65.71 307.23-65.28 300.79-68.46 295.6-73.36 289.27-84.32 275.12-89.65 273.65-101.8 259.74-112.57 247.41-116.1 239.72-114.59 232.66-114.13 230.51-113.33 228.91-113.06 228.49-99.7 207.5-27.44 265.14 33.45 244.56 56.09 236.91 67.98 221.57 79.55 206.4 71.41 206.43 66.17 206.71 66.17 206.71 45.58 206.71 24.36 209.38 24.36 209.38-3.87 212.92-47.29 218.36-80.74 211.75-99.11 208.12-127.49 198.28-158.72 167.49-145.14 179.87-122.83 196.9-91.89 206.04-42.21 220.71-17.44 201.09 66.4 200.9 72.4 200.89 78.12 200.98 83.58 201.15 93.87 187.87 104.85 175.44 123.72 169.31L123.69 169.29C124.06 169.18 124.45 169.07 124.82 168.96 125.89 168.63 127 168.32 128.13 168.03 128.98 167.81 129.83 167.59 130.7 167.39 130.74 167.39 130.78 167.37 130.81 167.36 130.84 167.36 130.87 167.36 130.9 167.34 137.46 165.83 144.73 164.86 152.61 164.95 197.75 165.49 217.12 200.08 269.66 210.16 283.62 212.84 295.73 212.98 304.6 212.52 351.23 207.34 382.63 178.39 427.59 192.93 435.45 195.47 459.41 203.62 470.85 226.71 473.74 232.55 475.67 239.07 476.59 245.78 481.06 248.53 485.52 251.45 489.99 254.52 490.58 252.51 491.28 250.54 492.11 248.62 503.19 223.15 535.41 209.71 557.04 211.09 559.62 211.25 565.38 211.67 566.01 214.08 567.89 221.21 520.2 225.99 503.46 253.3 501.91 255.82 500.65 258.52 499.63 261.37 556.29 302.73 612.22 363.04 664 374.7 671.29 376.34 697.42 382.22 714.44 368.8 716.7 367.01 726.7 359.13 726.03 348.84 725.57 341.82 720.37 336.98 718.72 335.44 704.38 322.07 680.04 331.25 641.58 331.85 620.75 332.18 577.14 332.85 564.75 311.13 564.7 311.04 564.62 310.9 564.52 310.73 560.84 304.1 559.52 295.23 561.75 287.71 561.99 286.89 564.83 277.72 571.85 273.6 593.01 261.17 646.06 298.07 666.44 295.97 667.63 295.85 669.21 295.54 670.08 294.35 673.49 289.67 661.35 277.75 652.34 263.37 648.36 257.02 635.49 236.46 636.08 212.6 630.1 210.23 624.27 207.68 618.89 205.07 576.92 184.66 579.06 168.34 540.77 148.27 537.82 146.72 509.93 132.39 474.4 127.93 409.98 119.83 357.47 148.84 335.95 162.55 357.37 147.84 409.49 116.71 475.14 122.5 508.43 125.44 535.3 137.01 545.13 141.32 588.29 160.28 582.48 172.98 624.27 193.6 624.27 193.6 629.28 196.07 637.84 199.41 640.97 186.62 647.7 175.51 650.97 176.25 654.2 176.99 651.68 188.25 650.55 204.01 675.38 212.34 714.35 221.59 751.99 214.79 759.01 213.53 766.14 211.79 766.14 211.79 783.9 207.42 796.35 202.06 799.16 200.89 929.86 146.62 985.25 170.93 985.25 170.93 1023.01 187.5 1053.26 231.99 1052.1 278.14 1051.05 319.78 1024.37 365.24 983.97 377.07 969.2 381.39 946.51 383.03 942.98 374.97 935.61 358.13 1025.06 328.94 1032.37 270.12 1035.38 245.85 1023.27 223.99 1020.2 218.63 1017.99 214.77 1004.1 191.24 976.38 179.18 976.38 179.18 934.52 160.97 801.01 210.09 800.97 210.1 800.56 210.25 800.01 210.45 798.78 210.9 796.77 211.61 794.26 212.44 789.85 213.9 784.04 215.66 777.08 217.32 777.08 217.32 777.05 217.32 777.03 217.33 772.14 218.5 766.68 219.62 760.75 220.56 755.66 221.48 752.13 222.31 751.45 224.58 751.18 225.49 751.38 226.54 751.45 226.9 751.86 229.02 753.33 230.41 754.49 231.39 755.49 232.23 756.73 233.15 758.03 234.06 761.55 235.98 765.12 238.19 768.69 240.77 789.69 255.95 804.85 279.47 811.8 305.17 867.14 283.62 912.09 240.59 916.21 246.09 919.27 250.18 897.1 277.55 864.25 296.82 847.62 306.58 830.6 312.89 814.35 316.86 817.61 336.11 816.27 356.03 809.35 374.19 806.48 381.73 800.5 396.67 785.92 409.9 732.41 458.45 615.84 424.06 613.21 398.26 612.9 395.27 614.05 391.65 616.66 389.36 630.12 377.53 663.07 418.19 708.03 420.28 739.91 421.77 777.42 403.75 794.83 371.58 804.07 354.52 806.19 336.29 804.05 319.1 765.35 326.47 732.68 321.29 722.91 319.42 724.91 320.34 726.82 321.55 728.66 323.15 735.3 328.93 739.5 338.15 739.36 346.91 739.09 362.93 724.36 373.34 720.92 375.77 715.51 379.59 698.44 389.98 663.28 382.31 625.23 374.01 601.09 352.22 578.93 333.77 547.6 307.68 521.26 285.75 497.51 269.17 490.29 307.57 520.96 365.7 562.45 398.45 577 409.94 589.72 415.8 606.39 423.5 620.06 429.81 671.67 453.11 728.01 453.82 829.35 455.1 870 384.78 927.35 409.47 946.26 417.61 958.31 432.02 965.35 442.41 965.73 442.97 950.98 422.42 928.21 415.09 881.43 400.02 849.25 457.22 761.83 462.67 752.09 463.28 745.26 463.02 736.12 462.67 605.15 457.69 518.4 375.03 409.42 367.32 395.66 366.35 382.41 366.63 368.68 368.51 354.88 370.4 313.53 376.06 277.44 405.63 255.69 423.46 245.15 442.35 239.95 439.49 236.29 437.48 237.76 426.1 241.32 417.57 248.98 399.17 267.33 391.57 297.49 379.59 332.2 365.8 359.03 362.19 367.57 361.18 377.98 359.94 391.24 358.37 408.65 359.51 457.29 362.67 517.86 385.62 521.75 387.11 527.08 389.16 538.01 393.48 540.34 390.28 543.04 386.56 532.62 374.84 529.26 370.89 511.54 350.01 483.07 300.61 488.2 262.88 484.47 260.43 480.79 258.13 477.17 255.97 476.96 268.29 473.28 280.39 465.71 289.31 444.13 314.76 392.15 312.8 359.2 294.93 338.25 283.58 316.31 261.08 297.95 265.1 296.1 265.5 290.63 266.69 286.67 271.29 280.78 278.13 282.25 287.92 283.03 293.12 283.44 295.86 285.76 311.31 298.86 320.19 305.42 324.64 311.98 325.61 314.99 325.97 340.12 329.04 370.14 320.95 385.2 318.14 427.67 310.21 474.49 321.23 491.98 346.34 493.7 348.8 496.75 353.28 495.21 355.68 489.97 363.86 443.34 326.83 384 326.24 360.54 326 344.02 331.59 310.97 342.77 254.85 361.76 252.93 376.12 207.95 386.42 156.14 398.3 129.87 385.84 121.16 381.08 107.21 373.46 95.31 362.01 97.05 358.85 100.41 352.74 148.31 391.03 204.78 382.14 208.12 381.61 211.53 380.91 214.94 380.05 214.76 379.57 239.57 373.66 250.69 352.49 264.27 326.63 250.06 292.12 248.53 288.55 247.26 285.56 245.82 282.23 243.14 278.13 230.5 258.76 209.89 252.41 203.28 250.47 196.48 248.48 191.4 247.98 184.28 247.31 139.38 243.11 112.09 258.33 106.77 261.42 99.27 265.77 94.09 268.78 94.54 271.98 96.15 283.48 166.16 268.61 183.56 297.84 191.62 311.38 187.69 333.24 175.04 344.77 162.53 356.17 141.82 357.16 139 351.59 134.73 343.15 173.95 324.6 170.14 308.67 164.77 286.22 79.84 293.8 77.4 276.43 76.59 270.69 85.23 265.17 94.24 259.4 129.87 236.56 167.32 242.23 169.11 231.66 169.54 229.11 167.95 226.67 164.91 223.84 150.38 210.3 114.14 207.06 89.83 206.49 77.21 225.68 68.27 247.42 46.57 257.52-4.2 281.15-102.96 230.9-104.48 233.01-105.65 234.63-106.09 236.51-106.09 236.51-108.04 244.72-98.63 253.36-94.24 256.98-89.96 260.89-83.6 266.1-75.12 270.99-63.84 277.5-54.68 280.06-41.47 283.65-21.54 289.07 1.07 292.57 14.27 292.81 16 292.84 22.04 292.89 30.16 293.88 34.46 294.41 38.19 295.06 41.74 295.77 56.11 298.66 65.16 300.47 74.05 304.39 86.37 309.83 106.23 322.76 104.64 335.44 104.57 336.02 103.8 341.08 100.99 342.11 94.4 344.53 86.9 324.58 66.94 312.24 64.28 310.6 51.39 302.64 37 302.64 15.03 302.64 1.9 321.19-11.76 332.47-46.7 361.36-74.88 334.28-147.89 349.89-217.3 364.73-264.71 404.72-274.13 392.54-276.25 389.79-275.26 385.82-274.69 383.56-267.22 353.78-190.43 342.62-143.79 341.31-136.95 341.12-66.47 339.34-35.42 331.34-33.86 330.94-22.2 327.82-9.96 318.96-3.3 314.14 5.55 307.65 4.64 302.37 3.45 295.47-17.08 297.71-41.39 291.3-42.66 290.96-43.93 290.6-45.21 290.23H-45.19C-48.78 289.19-51.66 288.25-53.63 287.57-57.49 286.24-60.44 285.06-61.56 286.3-61.77 286.54-61.86 286.79-61.92 287.03-62.47 289.12-61.58 291.71-60.85 293.36-60.59 293.9-60.31 294.39-60.06 294.96-58.9 297.03-57.68 300.08-56.93 304.29-56.78 305.06-56.65 305.82-56.55 306.57-56.55 306.6-56.54 306.63-56.53 306.66-55.96 311.32-56.56 315.56-58.53 319.02-66.09 332.33-92.17 329.68-98.97 329.02-158.33 323.21-173.48 203.33-252.55 180.69-298.61 167.5-338.92 195.16-343.5 198.4-393.08 233.55-407.08 311.06-378.11 360.21-354.71 399.91-308.93 411.5-294.41 414.95-174.2 443.54-74.36 327.6-6.98 367.1-.82 370.71 19.42 382.57 21.81 402.19 24.27 422.46 6.77 439.11 2.3 443.14 6.35 439.06 22.34 422.15 19.05 402.63 15.89 383.92-3.18 373.58-9.8 370-77.55 333.29-197.38 485.98-318.66 455.91-366.59 444.03-403.13 406.48-418.23 367.64-442.09 306.26-419.2 224.16-358.54 186.9V186.92Z"/>
</g>
</g>
</svg>
