<svg xmlns="http://www.w3.org/2000/svg" width="1920" height="1080" viewBox="0 0 1920 1080">
  <path fill="#000000" d="C 711.66,650.36 710.53,646.58 707.42,637.42 C 711.46,628.54 716.10,618.34 723.63,618.98 C 731.26,606.96 736.84,598.18 741.02,584.45 C 735.17,575.40 733.78,573.26 730.74,569.70 C 728.74,570.39 724.06,572.02 735.58,593.39 C 727.89,606.32 716.27,625.84 671.23,608.70 C 647.09,631.67 644.54,634.10 638.42,639.93 C 635.86,649.23 632.51,661.46 638.38,669.78 C 635.86,671.39 631.42,674.24 602.73,654.89 C 599.26,624.78 597.06,605.67 605.30,584.63 C 620.62,573.82 642.70,558.25 672.50,568.86 C 674.14,561.74 675.06,557.69 666.04,551.58 C 658.14,549.11 636.29,542.28 615.32,560.82 C 612.78,563.07 586.18,586.56 592.51,624.84 C 592.94,627.23 599.73,664.57 641.20,695.65 C 695.96,700.11 682.53,699.03 672.47,695.27 C 666.22,692.34 657.55,688.28 651.33,685.36 C 647.06,678.26 641.29,668.66 642.88,657.73 C 643.46,653.70 643.94,650.41 644.61,645.81 C 647.12,641.45 656.62,624.93 688.32,619.93 C 699.08,631.31 704.26,636.79 701.94,643.27 C 703.20,650.96 709.62,689.99 796.71,687.39 C 810.54,726.22 821.31,756.45 781.22,793.78 C 788.70,799.50 792.74,802.58 807.05,792.75 C 815.55,780.83 826.39,765.65 831.56,741.80 C 823.47,723.20 804.56,679.67 722.62,686.74 L 711.66,650.36 C 694.01,746.26 618.76,741.90 599.86,625.08 C 510.95,613.09 492.16,610.55 473.13,613.09 C 471.42,606.54 467.94,593.20 541.61,563.53 C 545.90,561.92 599.05,542.00 674.60,513.48 C 772.86,531.38 801.93,536.68 849.06,548.97 C 900.84,580.92 901.54,581.35 846.42,541.37 C 770.50,525.79 677.36,506.70 597.14,531.74 C 544.41,548.87 419.55,589.43 340.23,658.20 C 309.72,631.06 305.26,627.10 294.60,614.64 C 295.34,599.06 295.99,585.11 305.68,572.90 C 316.53,566.84 333.91,557.12 351.40,563.87 C 353.73,564.82 351.39,563.68 333.86,555.52 C 315.19,564.30 301.22,570.87 291.19,584.79 C 290.30,599.50 289.10,619.50 305.05,633.98 C 307.70,636.38 343.39,668.71 401.35,610.10 C 477.26,618.35 583.01,629.85 617.74,759.62 C 707.45,748.91 731.10,746.09 749.15,734.62 C 759.87,726.38 760.85,725.62 728.87,748.29 C 1278.70,557.59 1278.70,557.59 1278.75,557.61 L 1278.77,557.61 L 1278.71,557.61 L 1278.71,557.59 C 1629.48,600.51 1627.80,585.81 1618.31,571.76 C 1604.59,565.31 1585.93,556.54 1568.39,564.70 C 1566.06,565.83 1568.38,564.89 1585.86,558.14 C 1603.26,567.86 1614.10,573.92 1623.79,586.13 C 1624.45,600.07 1625.00,611.68 1619.57,625.44 C 1610.06,632.09 1575.91,655.97 1511.09,570.82 C 1445.65,592.18 1425.62,598.72 1408.76,614.15 C 1403.23,619.22 1380.41,640.11 1376.46,657.60 C 1351.98,678.01 1338.87,688.93 1326.34,695.32 C 1318.58,698.79 1357.43,673.62 1376.07,629.83 C 1365.54,592.43 1352.65,546.63 1302.05,531.94 C 1293.54,529.46 1250.28,516.90 1213.99,534.34 C 1205.23,538.86 1205.23,538.86 1248.13,518.01 C 1291.19,534.02 1296.00,535.80 1338.31,552.33 C 1350.22,595.96 1361.50,637.30 1338.93,678.78 C 1308.95,699.10 1285.50,715.01 1260.78,715.30 C 1260.78,715.30 1260.78,715.30 1317.04,718.05 C 1356.35,682.19 1367.49,672.03 1370.08,665.37 C 1408.54,623.95 1413.42,618.70 1426.34,605.16 C 1446.39,601.07 1451.61,600.01 1461.22,598.24 C 1464.16,601.98 1465.99,604.32 1463.09,612.57 C 1422.38,654.49 1394.01,683.70 1376.26,699.42 C 1363.10,710.49 1355.87,716.58 1352.25,719.62 C 1348.74,722.25 1333.78,733.47 1301.79,757.42 C 1258.73,759.86 1228.42,761.58 1203.39,752.03 C 1187.37,743.66 1211.16,756.50 1232.40,760.58 C 1245.58,762.06 1258.53,763.50 1307.25,767.33 C 1349.89,736.77 1352.82,734.66 1358.69,729.36 C 1370.42,718.76 1401.42,690.74 1411.51,678.01 C 1435.99,655.23 1459.75,633.13 1471.60,621.99 C 1477.18,619.86 1530.94,599.32 1582.70,662.68 C 1614.38,640.32 1626.53,631.74 1631.01,613.89 L 1629.48,600.52 C 1077.94,651.00 1087.53,639.08 1097.95,626.76 C 1109.70,614.37 1109.70,614.37 1121.94,601.46 C 1123.66,603.09 1125.00,604.35 1100.96,624.37 C 1100.34,651.34 1100.22,656.75 1100.06,663.57 C 1104.11,666.16 1114.49,672.79 1137.64,642.29 C 1153.57,649.36 1158.68,651.62 1163.59,658.02 C 1163.38,664.34 1162.86,679.40 1136.26,683.82 C 1114.87,696.64 1103.66,682.28 1094.02,663.05 C 755.67,637.24 752.51,612.94 778.32,587.36 C 805.34,582.54 827.09,578.67 859.34,586.50 C 863.78,607.59 867.55,625.46 850.54,648.18 C 835.43,648.46 815.54,648.82 809.91,610.00 C 786.36,609.22 773.85,608.80 758.34,619.18 C 756.34,633.46 755.82,637.18 756.30,640.66 C 757.28,643.80 756.55,641.74 755.98,639.57 C 1231.26,672.74 1231.44,671.50 1233.27,657.63 C 1225.10,646.75 1215.19,633.55 1199.58,636.78 C 1195.42,625.44 1192.64,617.86 1196.52,607.94 C 1202.72,603.11 1208.74,598.42 1216.34,599.05 C 1219.40,599.34 1255.10,602.75 1284.18,663.74 C 1306.60,657.66 1315.76,655.18 1319.78,642.58 C 1320.75,636.60 1324.75,611.93 1294.86,588.58 C 1276.14,579.06 1235.94,558.63 1194.87,575.39 C 1182.49,581.56 1176.08,584.75 1162.24,591.86 C 1153.46,607.08 1149.97,613.14 1146.53,621.79 C 1148.20,622.89 1150.86,624.62 1161.46,604.55 C 1179.81,591.51 1205.80,573.03 1244.82,570.47 C 1274.38,584.81 1294.86,594.74 1319.33,616.90 C 1314.85,633.66 1313.73,637.86 1310.16,644.30 C 1303.83,646.12 1282.45,652.25 1265.05,595.33 C 1224.42,592.05 1220.80,591.75 1205.30,590.50 C 1195.97,600.94 1189.67,607.98 1186.54,619.91 C 1190.82,628.63 1196.45,640.08 1209.78,636.78 C 1218.36,649.70 1224.90,659.57 1223.41,670.92 C 1223.14,672.70 1219.89,694.96 1193.07,705.85 C 1183.88,709.58 1179.69,711.28 1175.55,712.55 C 1171.54,713.50 1170.54,713.70 1169.56,713.92 C 1168.52,714.10 1168.52,714.10 1155.44,716.40 C 1143.94,715.50 1134.06,714.74 1126.50,709.66 C 1119.82,702.47 1141.16,692.39 1170.87,687.46 C 1174.93,666.42 1176.62,657.59 1173.77,646.17 C 1166.84,641.95 1150.33,631.91 1115.39,665.77 C 1106.18,656.82 1105.67,656.33 1104.42,654.88 C 1104.32,650.85 1103.87,633.59 1127.74,589.70 C 1178.34,567.78 1227.38,546.52 1274.92,556.72 C 1278.60,557.56 1257.60,552.38 1222.54,547.06 C 1183.82,558.80 1182.58,559.17 1181.74,559.45 C 1181.12,559.65 1137.97,573.66 1109.19,601.16 C 1097.29,613.04 1086.02,624.28 1076.42,634.92 C 1067.98,644.96 1067.43,644.70 1066.89,644.46 C 1066.34,644.22 1019.62,624.10 950.26,672.02 C 944.17,661.11 943.75,660.37 943.70,659.66 C 943.59,658.23 943.10,651.71 946.82,645.00 C 952.98,638.78 956.90,635.63 960.82,632.48 C 964.74,629.33 974.44,622.94 986.21,617.73 C 997.30,614.84 1012.95,610.75 1034.72,609.33 C 1043.52,608.74 1047.22,608.50 1052.85,608.20 C 1060.62,606.97 1068.80,605.68 1078.12,604.20 C 1088.40,599.77 1092.68,597.92 1115.53,588.06 C 1114.58,576.97 1114.56,576.77 1114.15,572.54 C 1111.66,571.63 1106.38,569.70 1100.38,585.66 C 1084.41,595.53 1082.28,596.84 1071.97,603.21 C 1060.46,603.21 1047.49,603.21 1031.22,587.02 C 1021.46,579.34 987.91,552.94 959.02,583.65 C 917.42,560.54 887.72,544.05 876.73,514.81 C 870.69,518.23 866.66,520.52 868.60,535.26 C 875.67,544.81 882.05,553.42 892.05,557.10 C 908.63,563.18 913.15,564.84 916.64,565.88 C 917.86,566.26 952.83,576.86 971.13,571.66 C 1002.53,580.25 1004.42,580.77 1013.42,583.30 C 1022.90,590.15 1028.22,594.01 1035.30,599.20 C 1034.58,603.42 1033.62,608.94 1017.20,607.15 C 997.75,612.29 996.74,612.56 995.72,612.85 L 994.70,613.14 C 994.71,613.14 991.84,613.98 989.54,614.74 C 987.96,615.28 984.86,616.34 982.51,617.28 C 981.61,616.30 981.44,616.11 981.37,615.90 C 981.32,615.71 980.88,614.04 981.59,611.97 C 982.18,610.65 982.38,610.22 982.61,609.82 C 982.81,609.37 983.74,607.71 984.71,605.28 C 985.31,601.90 985.43,601.29 985.54,600.68 C 985.62,600.08 985.62,600.06 985.62,600.03 C 985.62,600.01 986.08,596.28 985.60,592.89 C 984.02,590.12 977.97,579.46 957.12,581.59 C 951.67,582.12 905.29,586.67 894.43,659.67 C 838.34,674.38 834.98,675.26 799.42,684.42 C 773.67,664.58 772.32,663.54 769.79,661.59 C 767.05,658.81 766.86,658.59 754.91,645.14 C 758.82,633.94 762.46,623.53 775.70,618.95 C 785.35,619.61 808.21,621.16 811.26,651.89 C 832.42,655.26 852.14,658.39 879.05,636.38 C 879.24,615.10 879.47,589.98 842.43,570.03 C 812.56,571.79 778.11,573.82 744.34,605.25 C 746.96,636.26 748.72,657.12 766.31,670.34 C 769.47,672.72 797.02,693.43 835.11,681.34 C 841.16,679.30 841.22,679.28 841.62,679.14 C 842.10,678.98 891.86,661.56 927.20,595.45 C 954.42,589.64 956.65,589.17 964.26,587.54 C 971.11,591.37 972.39,592.08 977.18,594.75 C 978.29,599.56 979.38,604.34 976.29,608.82 C 972.17,613.93 963.54,624.63 957.60,629.26 C 949.42,637.55 933.37,653.81 933.09,659.47 C 933.78,662.59 933.78,662.59 934.56,666.06 C 937.86,669.06 953.99,683.70 1013.12,634.39 C 1053.95,651.10 1056.15,652.00 1058.28,653.07 C 1060.34,654.30 1025.11,698.10 1010.46,729.25 C 969.07,746.30 942.78,757.14 928.81,752.75 C 923.70,750.68 899.46,740.85 891.68,708.94 C 885.44,711.18 881.97,712.43 881.62,723.22 C 884.82,731.55 890.96,747.51 909.44,752.72 C 918.23,755.20 944.88,762.73 968.47,754.87 C 972.86,753.34 1012.21,739.66 1036.49,703.74 C 1069.82,661.28 1083.29,673.05 1094.16,690.18 C 1106.71,702.27 1100.71,707.03 1095.61,712.83 C 1092.32,720.24 1081.00,745.77 1094.42,784.33 C 1116.77,794.76 1121.00,796.74 1129.83,799.71 C 1132.75,796.31 1140.52,787.27 1090.74,751.39 C 1098.70,722.82 1100.61,715.96 1105.46,710.92 C 1111.86,706.84 1115.92,710.11 1120.20,712.77 C 1124.82,714.48 1135.62,718.49 1146.55,719.23 C 1146.55,719.23 1156.87,719.23 1164.68,718.37 C 1168.20,717.64 1174.50,716.33 1226.65,704.63 L 1231.32,672.74 L 1231.26,672.74 C 850.30,477.62 867.54,471.12 900.11,457.77 C 914.48,425.25 916.44,420.80 929.82,390.52 C 915.12,367.50 908.32,356.86 897.62,351.06 C 890.62,348.31 911.35,355.08 930.94,368.66 C 933.46,384.71 934.59,391.87 933.49,406.88 C 932.59,414.98 931.46,425.23 929.74,432.90 C 934.34,438.56 937.57,442.54 942.35,443.63 C 944.52,444.09 964.62,448.36 984.62,425.59 C 1013.20,416.66 1033.89,410.19 1066.50,408.65 C 1076.88,424.06 1081.64,431.12 1082.05,442.14 C 1079.07,453.26 1063.70,460.48 1049.14,463.86 C 1034.01,462.74 1008.37,460.83 985.07,446.24 C 983.06,450.36 981.70,453.17 991.28,461.28 C 1000.20,466.07 1021.82,477.67 1045.24,472.81 C 1051.66,471.47 1059.58,469.82 1067.51,466.98 C 1075.46,463.26 1070.58,473.94 1062.71,483.56 C 1052.75,488.38 1024.02,502.31 995.42,467.98 C 932.90,476.12 927.57,476.82 921.86,477.55 C 914.23,479.60 875.89,489.87 864.60,512.71 C 834.18,513.46 830.47,513.55 824.98,513.35 C 818.67,511.88 803.02,508.22 793.66,499.37 C 786.26,489.07 824.01,487.08 843.91,479.99 L 850.30,477.58 C 1291.78,400.18 1312.30,394.10 1333.54,396.79 C 1353.46,403.45 1348.21,426.63 1334.06,446.19 C 1322.96,452.83 1317.82,455.91 1304.04,461.76 C 1295.04,464.17 1288.34,465.95 1282.05,466.77 C 1282.05,466.77 1279.95,467.04 1278.86,467.05 C 1276.36,467.34 1271.17,467.97 1265.99,468.78 C 1260.78,469.24 1253.03,469.94 1242.51,472.55 C 1231.74,476.18 1231.82,466.23 1233.21,455.16 C 1237.87,444.61 1252.04,412.54 1289.55,400.84 C 1178.16,424.04 1173.38,421.80 1171.33,418.30 C 1171.33,418.30 1171.33,418.30 1168.61,413.34 C 1170.86,406.53 1174.49,395.54 1200.26,390.49 C 1224.87,390.54 1252.70,390.59 1269.56,397.15 C 1281.78,396.66 1243.29,406.15 1190.73,429.94 C 424.84,500.82 460.26,522.58 510.65,524.48 C 543.90,502.15 586.70,473.42 603.47,402.99 C 632.70,393.74 636.78,392.45 647.89,388.93 C 654.38,394.45 658.62,398.05 659.05,403.93 C 659.10,404.58 659.44,409.73 656.90,413.88 C 652.98,418.94 644.21,430.26 639.94,431.44 C 630.22,442.57 621.61,452.43 618.78,458.58 C 619.99,464.23 620.36,465.95 621.00,467.23 C 621.22,467.57 631.90,484.36 689.71,438.25 C 738.42,454.71 756.54,460.83 766.05,473.10 C 775.30,485.24 768.79,485.22 764.60,484.99 C 764.60,484.99 748.13,484.99 731.15,482.86 C 731.15,482.86 708.57,480.02 673.83,475.67 C 647.07,480.96 632.38,483.86 609.67,491.74 C 584.69,516.37 595.55,506.46 613.40,492.84 C 638.15,485.53 677.90,473.79 697.71,489.49 C 764.78,489.64 769.58,489.65 774.16,489.58 C 778.53,489.44 786.76,500.06 795.54,510.01 L 810.64,514.91 C 810.62,514.93 810.91,515.02 811.22,515.10 C 811.52,515.19 812.38,515.46 813.26,515.70 C 814.17,515.94 814.85,516.11 815.53,516.29 C 816.22,516.45 816.26,516.45 816.29,516.46 C 816.31,516.47 816.34,516.47 816.36,516.47 C 816.38,516.49 821.63,517.70 827.45,518.47 C 833.75,518.40 869.86,517.97 885.36,490.30 C 927.39,482.23 938.56,480.09 948.25,479.98 C 955.34,480.34 992.65,484.49 1017.77,507.65 C 1053.74,496.02 1060.02,493.98 1079.19,487.46 C 1088.34,468.99 1090.66,464.32 1092.20,459.10 C 1092.94,453.74 1096.51,451.54 1100.08,449.20 C 1103.66,446.74 1104.13,448.35 1104.69,449.93 C 1105.35,451.46 1114.22,471.84 1139.99,482.59 C 1157.30,481.49 1159.36,481.36 1163.97,481.02 C 1164.47,479.10 1165.98,473.39 1127.82,469.57 C 1114.43,447.72 1113.19,445.70 1112.18,443.54 C 1111.37,441.26 1156.70,408.18 1201.44,359.93 C 1242.86,350.60 1248.70,349.29 1269.60,344.58 C 1283.22,355.32 1285.02,356.75 1293.02,363.06 C 1292.49,371.29 1292.12,376.90 1287.96,380.78 C 1286.64,382.01 1275.17,392.70 1255.70,385.36 C 1224.93,384.88 1208.26,384.62 1173.38,384.08 C 1163.46,401.46 1163.42,401.53 1163.36,401.64 C 1163.28,401.78 1160.34,407.08 1159.28,414.18 C 1161.06,420.19 1161.26,420.85 1163.53,428.18 C 1169.14,431.48 1186.07,441.42 1228.51,411.90 C 1244.82,413.58 1245.77,413.68 1247.03,413.93 C 1247.73,414.88 1250.46,418.62 1240.74,428.16 C 1233.54,439.66 1230.35,444.74 1220.06,461.19 C 1220.53,480.28 1215.74,482.18 1211.08,484.22 C 1206.78,486.30 1173.20,502.63 1174.91,515.69 C 1144.28,531.74 1141.92,532.98 1119.61,544.45 C 1091.18,548.02 1039.65,554.50 997.64,531.29 C 980.42,520.32 997.56,532.09 1039.26,556.99 C 1091.78,552.36 1118.41,550.01 1139.90,540.75 C 1147.77,537.30 1182.30,522.14 1177.65,511.98 C 1211.08,495.48 1211.08,495.48 1215.09,493.50 C 1221.94,490.83 1224.44,501.06 1229.82,509.95 C 1232.44,509.36 1235.02,508.77 1233.01,499.76 C 1232.10,487.15 1251.97,480.49 1283.14,473.09 C 1313.26,478.53 1318.87,479.54 1324.58,480.93 C 1324.58,480.93 1338.78,484.42 1348.74,488.71 C 1350.99,489.65 1455.55,533.06 1499.86,513.62 C 1499.86,513.62 1530.07,500.36 1554.27,464.77 C 1553.34,427.85 1552.50,394.54 1531.16,358.17 C 1498.84,348.70 1487.02,345.25 1468.87,343.94 C 1466.05,350.38 1460.15,363.86 1531.71,387.21 C 1537.56,434.26 1539.97,453.68 1530.28,471.17 C 1527.82,475.46 1526.06,478.54 1514.94,497.37 C 1492.77,507.02 1492.77,507.02 1459.28,521.58 C 1352.47,482.29 1352.44,482.28 1352.11,482.16 C 1351.67,482.00 1350.69,481.64 1349.08,481.07 C 1347.07,480.41 1343.54,479.24 1338.90,477.83 C 1333.33,476.50 1333.33,476.50 1333.30,476.50 C 1333.29,476.50 1329.38,475.56 1325.01,474.66 C 1320.26,473.91 1316.19,473.18 1313.37,472.51 C 1312.82,470.70 1312.61,469.97 1312.77,469.13 C 1312.82,468.84 1313.15,467.14 1314.33,466.03 C 1315.26,465.25 1316.06,464.58 1317.05,463.84 C 1318.09,463.11 1320.90,461.58 1323.76,459.81 C 1326.62,457.74 1343.42,445.60 1355.54,426.78 C 1361.10,406.22 1405.38,423.46 1441.34,457.89 C 1444.63,453.49 1447.08,450.22 1429.34,428.32 C 1403.06,412.90 1389.76,405.10 1376.14,400.05 C 1363.14,396.87 1365.75,381.47 1364.68,365.54 C 1359.14,351.01 1356.85,344.98 1352.06,333.02 C 1340.40,322.44 1297.59,283.60 1204.34,311.11 C 1202.23,331.75 1201.98,334.14 1202.90,337.04 C 1204.99,338.87 1215.76,348.34 1242.12,315.81 C 1278.09,314.14 1303.59,312.94 1333.60,327.36 C 1347.53,353.10 1354.92,366.74 1356.62,381.33 C 1354.90,395.08 1323.94,389.18 1297.81,393.33 C 1289.99,394.82 1291.59,394.09 1293.12,393.12 C 1294.59,391.84 1299.90,387.22 1303.26,379.84 C 1303.15,372.83 1302.94,360.02 1291.15,351.69 C 1288.40,349.74 1284.07,346.69 1270.42,338.38 C 1242.29,344.51 1211.85,351.15 1192.54,368.58 C 1174.81,383.34 1149.74,404.22 1128.67,421.76 C 1109.67,435.02 1103.90,404.30 1128.43,357.80 C 1161.62,331.60 1173.26,322.41 1183.44,317.72 C 1196.78,311.56 1207.71,306.51 1249.00,287.87 C 1294.07,287.30 1375.14,286.28 1407.66,342.54 C 1453.54,322.78 1468.67,316.27 1478.31,304.74 C 1483.94,296.43 1484.25,295.98 1472.45,312.42 C 1454.23,318.29 1416.81,330.34 1391.06,284.58 C 1321.13,280.22 1313.34,279.74 1307.87,279.94 C 1300.56,280.22 1195.78,284.21 1126.38,350.34 C 1039.20,356.50 1028.19,357.28 1017.59,357.06 C 1006.61,355.55 995.57,354.04 962.49,349.51 C 933.62,325.86 916.22,311.59 907.78,296.48 C 903.62,298.77 900.70,300.38 901.87,309.48 C 904.72,316.30 910.85,331.02 925.53,337.10 C 949.66,346.69 977.42,357.72 998.89,360.61 C 1005.72,361.42 1014.05,362.41 1024.66,363.66 C 1038.58,362.75 1077.50,360.22 1125.95,341.86 C 1129.06,340.67 1133.33,339.03 1142.07,335.58 C 1143.94,338.14 1146.10,341.11 1137.76,350.49 C 1135.07,353.65 1120.90,370.35 1098.12,409.87 C 1102.22,440.06 1099.24,442.02 1096.30,443.86 C 1093.40,445.58 1093.23,435.73 1090.29,426.05 C 1084.23,418.91 1066.97,398.55 1025.38,400.12 C 999.02,414.42 982.26,423.50 964.71,441.50 C 950.02,438.28 948.54,437.96 944.17,437.01 C 941.00,433.33 936.29,427.86 937.46,420.02 C 938.09,415.86 938.42,413.67 940.27,401.31 C 950.75,394.21 956.00,390.65 961.25,389.87 C 963.66,389.58 983.76,387.13 1007.78,393.60 C 1019.82,395.85 1053.80,402.19 1091.26,393.38 C 1105.25,373.29 1106.62,371.32 1109.06,367.74 C 1107.83,365.82 1103.64,359.27 1066.34,388.90 C 1018.86,389.37 1000.10,389.56 986.88,385.09 C 960.44,376.14 915.54,360.95 914.01,349.46 C 878.02,341.22 836.58,331.72 815.56,341.69 C 808.59,345.50 797.43,351.59 787.91,360.75 C 789.30,363.28 791.99,368.17 830.31,337.54 C 875.49,344.65 878.16,345.07 880.89,345.63 C 883.62,346.32 883.47,346.70 903.32,351.43 C 912.22,368.37 923.08,389.06 911.71,416.66 C 910.49,419.52 909.47,421.91 908.32,424.58 C 906.18,427.86 896.06,443.35 879.58,448.43 C 874.29,449.98 868.85,451.58 864.78,451.98 C 859.09,452.51 823.17,455.87 801.34,443.70 C 797.08,441.22 791.08,437.74 786.94,435.34 C 787.30,432.78 788.58,423.58 844.59,435.47 C 858.51,412.09 864.96,401.26 861.82,383.77 C 851.70,374.54 841.69,365.42 825.12,364.63 C 822.86,369.09 819.45,375.84 850.82,390.68 C 847.78,403.42 843.48,421.38 775.54,415.32 C 773.58,429.22 772.94,433.81 779.85,438.22 C 787.06,442.84 815.56,461.11 845.52,456.58 C 846.95,465.03 847.30,467.07 846.02,469.02 C 843.59,471.29 831.97,482.12 802.98,484.71 C 783.53,485.17 773.43,469.82 766.28,452.42 C 748.92,444.34 708.30,425.44 629.30,465.64 C 628.08,463.95 627.14,462.66 626.79,461.15 C 626.79,461.15 625.23,454.58 632.76,447.67 C 636.27,444.78 639.70,441.65 644.78,437.48 C 651.57,433.57 660.59,428.36 667.92,426.31 C 678.49,423.44 694.43,419.10 712.52,416.30 C 723.08,416.11 724.46,416.09 729.30,416.05 C 735.79,415.26 739.23,414.83 742.22,414.31 C 745.06,413.74 756.55,411.43 763.79,409.98 C 770.90,406.85 780.76,402.50 796.65,392.15 C 795.38,382.01 795.32,381.54 794.70,377.50 C 792.46,376.67 787.18,374.74 781.18,390.70 C 765.22,400.57 763.09,401.88 752.78,408.25 C 741.26,408.25 723.69,408.25 713.18,393.41 C 702.26,384.38 674.30,361.27 651.76,382.94 C 593.35,370.45 537.82,358.58 499.90,326.58 C 492.36,336.33 490.66,338.53 491.46,341.70 C 491.91,343.51 497.89,367.34 559.32,376.26 C 596.63,377.31 602.10,377.46 658.49,378.89 C 683.33,385.29 684.58,385.61 693.90,388.10 C 703.70,395.19 709.02,399.05 716.10,404.24 C 715.38,408.46 714.42,413.98 698.00,412.19 C 678.55,417.32 677.54,417.59 676.52,417.88 L 675.50,418.18 C 675.51,418.18 672.64,419.01 670.34,419.76 C 668.76,420.30 665.67,421.37 663.31,422.31 C 662.42,421.32 662.25,421.13 662.18,420.93 C 662.13,420.74 661.69,419.06 662.40,416.99 C 662.98,415.67 663.19,415.24 663.42,414.85 C 663.62,414.39 664.54,412.74 665.52,410.30 C 666.12,406.93 666.24,406.31 666.34,405.70 C 666.42,405.10 666.42,405.08 666.43,405.06 C 666.44,405.03 666.90,401.30 666.42,397.91 C 664.84,395.14 658.79,384.50 637.93,386.62 C 632.49,387.14 585.00,391.79 572.88,487.70 C 509.62,505.81 472.78,516.36 440.53,494.23 C 436.86,491.64 397.20,463.52 386.00,401.51 C 409.18,362.19 427.90,330.43 464.52,321.16 C 476.14,318.40 572.30,295.53 652.18,388.28 C 706.08,356.68 711.01,353.79 727.20,344.30 C 729.11,328.61 731.08,312.39 717.08,299.07 C 713.50,295.85 716.74,299.11 729.54,312.64 C 726.90,328.26 724.38,343.22 709.12,351.50 C 703.82,354.36 649.62,383.73 553.76,261.58 C 456.74,285.63 418.39,295.14 389.16,325.18 C 377.08,356.25 357.99,405.35 376.30,471.03 L 424.83,500.84 L 424.83,500.82"/>
</svg>